<svg width="12" height="11" viewBox="0 0 12 11" fill="none" xmlns="http://www.w3.org/2000/svg">
    <path d="M10.91 5.688a3.247 3.247 0 0 0-3.408.777 3.326 3.326 0 0 0-.77 3.435H.544a.543.543 0 0 1-.385-.161A.552.552 0 0 1 0 9.35V.55C0 .404.057.264.16.161A.543.543 0 0 1 .545 0h9.819c.144 0 .283.058.385.161.103.103.16.243.16.389v5.138zm-5.423-.912L1.99 1.78l-.707.838 4.211 3.605L9.63 2.616l-.713-.832-3.428 2.992zm4.877 3.474H12v1.1h-1.636V11H9.273V9.35H7.636v-1.1h1.637V6.6h1.09v1.65z" fill="#BDBDBD"/>
</svg>
