<svg width="262" height="32" viewBox="0 0 262 32" fill="none" xmlns="http://www.w3.org/2000/svg">
    <g clip-path="url(#td08xn4ffa)" fill-rule="evenodd" clip-rule="evenodd">
        <path d="M48.582 26.068v-7.27H8.602c-.848 0-1.575.301-2.178.903a2.948 2.948 0 0 0-.905 2.169v1.127c0 .845.301 1.568.905 2.17.603.6 1.33.9 2.179.9h39.979zm0-12.679V8.571c0-.845-.302-1.567-.905-2.169a2.977 2.977 0 0 0-2.18-.901H9.48c-.85 0-1.575.3-2.179.901a2.95 2.95 0 0 0-.905 2.17v.084H.963v-.085c0-2.347.83-4.348 2.49-6C5.038.993 6.933.166 9.14.09h36.697c2.207.075 4.103.902 5.688 2.48 1.659 1.652 2.49 3.653 2.49 6v22.907H8.603c-2.359 0-4.367-.827-6.027-2.48-1.66-1.652-2.49-3.653-2.49-6.001V21.87c0-2.329.83-4.32 2.49-5.973 1.66-1.672 3.668-2.508 6.027-2.508h39.979zM63.691 19.39h36.386c.849 0 1.575-.3 2.179-.901a2.953 2.953 0 0 0 .905-2.17V8.6c0-.845-.302-1.568-.905-2.169a2.978 2.978 0 0 0-2.179-.902H66.775c-.849 0-1.575.301-2.179.902a2.949 2.949 0 0 0-.905 2.17v10.79zM58.258 8.6c0-2.348.83-4.348 2.49-6.002 1.66-1.652 3.669-2.48 6.027-2.48h33.302c2.358 0 4.366.828 6.027 2.48 1.659 1.654 2.49 3.654 2.49 6.001v7.72c0 2.348-.831 4.349-2.49 6.001-1.661 1.653-3.669 2.48-6.027 2.48H63.691v6.677h-5.433V8.6zM160.457 26.068v-7.27h-39.98c-.849 0-1.575.301-2.179.903a2.952 2.952 0 0 0-.905 2.169v1.127c0 .845.302 1.568.905 2.17.604.6 1.33.9 2.179.9h39.98zm0-12.679V8.571a2.95 2.95 0 0 0-.906-2.169 2.977 2.977 0 0 0-2.178-.902h-36.019c-.849 0-1.575.301-2.178.902a2.95 2.95 0 0 0-.906 2.17v.084h-5.432V8.57c0-2.348.829-4.348 2.49-6 1.584-1.578 3.48-2.405 5.686-2.48h36.698c2.207.075 4.103.902 5.687 2.48 1.66 1.652 2.49 3.652 2.49 6v22.907h-45.412c-2.358 0-4.367-.827-6.027-2.48-1.659-1.653-2.489-3.653-2.489-6.001V21.87c0-2.329.83-4.32 2.489-5.973 1.66-1.672 3.669-2.508 6.027-2.508h39.98zM218.289 5.5h-39.752a6.538 6.538 0 0 0-1.076.141 4.498 4.498 0 0 0-1.273.507c-.981.639-1.471 1.681-1.471 3.128 0 .376.047.732.141 1.07.094.49.264.912.51 1.268.64.977 1.687 1.465 3.14 1.465h31.407c2.263 0 4.262.695 5.998 2.085 2.151 1.69 3.225 4.067 3.225 7.129 0 2.235-.688 4.225-2.065 5.972-1.698 2.142-4.084 3.212-7.158 3.212h-39.782v-5.41h39.782c1.452 0 2.499-.488 3.14-1.464.245-.357.425-.78.538-1.268.075-.338.113-.686.113-1.043 0-1.465-.491-2.517-1.471-3.155a4.127 4.127 0 0 0-1.246-.507 7.092 7.092 0 0 0-1.074-.141h-31.407c-3.056 0-5.442-1.07-7.158-3.212-1.377-1.728-2.066-3.719-2.066-5.973 0-3.061 1.076-5.438 3.226-7.128C174.264.786 176.263.09 178.508.09h39.781V5.5z" fill="#fff"/>
        <path d="M250.276 10.991h10.868v9.664h-10.868v10.822h-9.705V20.655h-10.918v-9.664h10.918V.12h9.705v10.872z" fill="#E15C3B"/>
    </g>
    <defs>
        <clipPath id="td08xn4ffa">
            <path fill="#fff" d="M0 0h261.744v32H0z"/>
        </clipPath>
    </defs>
</svg>
