<svg width="16" height="16" viewBox="0 0 16 16" fill="none" xmlns="http://www.w3.org/2000/svg">
    <path d="M16 11.929v3.143a.889.889 0 0 1-.828.887c-.388.027-.705.041-.95.041C6.366 16 0 9.633 0 1.778c0-.246.013-.563.04-.951A.889.889 0 0 1 .929 0H4.07a.444.444 0 0 1 .443.4c.02.204.039.367.056.49a12.357 12.357 0 0 0 1.074 3.557c.085.178.03.39-.13.504l-1.919 1.37a11.597 11.597 0 0 0 6.084 6.084l1.368-1.914a.41.41 0 0 1 .51-.133c1.124.534 2.323.895 3.555 1.071.124.018.286.038.489.057a.445.445 0 0 1 .399.443z" fill="#BDBDBD"/>
</svg>
